HIERARCHY
ROOT hip
{
  OFFSET 0.0 0.0 0.0
  CHANNELS 6 Xposition Yposition Zposition Zrotation Yrotation Xrotation
  JOINT abdomen
  {
    OFFSET 0.0 20.6881 -0.73152
    CHANNELS 3 Zrotation Xrotation Yrotation
    JOINT chest
    {
      OFFSET 0.0 11.7043 -0.48768
      CHANNELS 3 Zrotation Xrotation Yrotation
      JOINT neck
      {
        OFFSET 0.0 22.1894 -2.19456
        CHANNELS 3 Zrotation Xrotation Yrotation
        JOINT head
        {
          OFFSET -0.24384 7.07133 1.2192
          CHANNELS 3 Zrotation Xrotation Yrotation
          JOINT leftEye
          {
            OFFSET 4.14528 8.04674 8.04672
            CHANNELS 3 Zrotation Xrotation Yrotation
            End Site
            {
              OFFSET 1.0 0.0 0.0
            }
          }
          JOINT rightEye
          {
            OFFSET -3.6576 8.04674 8.04672
            CHANNELS 3 Zrotation Xrotation Yrotation
            End Site
            {
              OFFSET 1.0 0.0 0.0
            }
          }
        }
      }
      JOINT rCollar
      {
        OFFSET -2.68224 19.2634 -4.8768
        CHANNELS 3 Zrotation Xrotation Yrotation
        JOINT rShldr
        {
          OFFSET -8.77824 -1.95073 1.46304
          CHANNELS 3 Zrotation Xrotation Yrotation
          JOINT rForeArm
          {
            OFFSET -28.1742 -1.7115 0.48768
            CHANNELS 3 Zrotation Xrotation Yrotation
            JOINT rHand
            {
              OFFSET -22.5879 0.773209 7.07136
              CHANNELS 3 Zrotation Xrotation Yrotation
              JOINT rThumb1
              {
                OFFSET -1.2192 -0.487915 3.41376
                CHANNELS 3 Zrotation Xrotation Yrotation
                JOINT rThumb2
                {
                  OFFSET -3.37035 -0.52449 3.41376
                  CHANNELS 3 Zrotation Xrotation Yrotation
                  End Site
                  {
                    OFFSET -1.78271 -1.18214 1.43049
                  }
                }
              }
              JOINT rIndex1
              {
                OFFSET -7.75947 0.938293 5.60832
                CHANNELS 3 Zrotation Xrotation Yrotation
                JOINT rIndex2
                {
                  OFFSET -2.54057 -0.884171 1.56538
                  CHANNELS 3 Zrotation Xrotation Yrotation
                  End Site
                  {
                    OFFSET -1.62519 -0.234802 1.16502
                  }
                }
              }
              JOINT rMid1
              {
                OFFSET -8.24714 1.18213 3.41376
                CHANNELS 3 Zrotation Xrotation Yrotation
                JOINT rMid2
                {
                  OFFSET -3.10165 -0.590103 1.0647
                  CHANNELS 3 Zrotation Xrotation Yrotation
                  End Site
                  {
                    OFFSET -2.48547 -0.328903 0.83742
                  }
                }
              }
              JOINT rRing1
              {
                OFFSET -8.82822 0.546677 1.51678
                CHANNELS 3 Zrotation Xrotation Yrotation
                JOINT rRing2
                {
                  OFFSET -2.60934 -0.819778 -0.0198488
                  CHANNELS 3 Zrotation Xrotation Yrotation
                  End Site
                  {
                    OFFSET -2.33842 -0.294052 0.168128
                  }
                }
              }
              JOINT rPinky1
              {
                OFFSET -8.27202 -0.0477905 -0.4584
                CHANNELS 3 Zrotation Xrotation Yrotation
                JOINT rPinky2
                {
                  OFFSET -1.82734 -0.647385 -0.700984
                  CHANNELS 3 Zrotation Xrotation Yrotation
                  End Site
                  {
                    OFFSET -1.69225 -0.51767 -0.607171
                  }
                }
              }
            }
          }
        }
      }
      JOINT lCollar
      {
        OFFSET 2.68224 19.2634 -4.8768
        CHANNELS 3 Zrotation Xrotation Yrotation
        JOINT lShldr
        {
          OFFSET 8.77824 -1.95073 1.46304
          CHANNELS 3 Zrotation Xrotation Yrotation
          JOINT lForeArm
          {
            OFFSET 28.1742 -1.7115 0.48768
            CHANNELS 3 Zrotation Xrotation Yrotation
            JOINT lHand
            {
              OFFSET 22.5879 0.773209 7.07136
              CHANNELS 3 Zrotation Xrotation Yrotation
              JOINT lThumb1
              {
                OFFSET 1.2192 -0.487915 3.41376
                CHANNELS 3 Zrotation Xrotation Yrotation
                JOINT lThumb2
                {
                  OFFSET 3.37035 -0.52449 3.41376
                  CHANNELS 3 Zrotation Xrotation Yrotation
                  End Site
                  {
                    OFFSET 1.78271 -1.18214 1.43049
                  }
                }
              }
              JOINT lIndex1
              {
                OFFSET 7.75947 0.938293 5.60832
                CHANNELS 3 Zrotation Xrotation Yrotation
                JOINT lIndex2
                {
                  OFFSET 2.54057 -0.884171 1.56538
                  CHANNELS 3 Zrotation Xrotation Yrotation
                  End Site
                  {
                    OFFSET 1.62519 -0.234802 1.16502
                  }
                }
              }
              JOINT lMid1
              {
                OFFSET 8.24714 1.18213 3.41376
                CHANNELS 3 Zrotation Xrotation Yrotation
                JOINT lMid2
                {
                  OFFSET 3.10165 -0.590103 1.0647
                  CHANNELS 3 Zrotation Xrotation Yrotation
                  End Site
                  {
                    OFFSET 2.48547 -0.328903 0.83742
                  }
                }
              }
              JOINT lRing1
              {
                OFFSET 8.82822 0.546677 1.51678
                CHANNELS 3 Zrotation Xrotation Yrotation
                JOINT lRing2
                {
                  OFFSET 2.60934 -0.819778 -0.0198488
                  CHANNELS 3 Zrotation Xrotation Yrotation
                  End Site
                  {
                    OFFSET 2.33842 -0.294052 0.168128
                  }
                }
              }
              JOINT lPinky1
              {
                OFFSET 8.27202 -0.0477905 -0.4584
                CHANNELS 3 Zrotation Xrotation Yrotation
                JOINT lPinky2
                {
                  OFFSET 1.82734 -0.647385 -0.700984
                  CHANNELS 3 Zrotation Xrotation Yrotation
                  End Site
                  {
                    OFFSET 1.69225 -0.51767 -0.607171
                  }
                }
              }
            }
          }
        }
      }
    }
  }
  JOINT rButtock
  {
    OFFSET -8.77824 4.35084 1.2192
    CHANNELS 3 Zrotation Xrotation Yrotation
    JOINT rThigh
    {
      OFFSET 0.0 -1.70687 -2.19456
      CHANNELS 3 Zrotation Xrotation Yrotation
      JOINT rShin
      {
        OFFSET 0.0 -36.8199 0.73152
        CHANNELS 3 Zrotation Xrotation Yrotation
        JOINT rFoot
        {
          OFFSET 0.73152 -45.1104 -5.12064
          CHANNELS 3 Zrotation Xrotation Yrotation
          End Site
          {
            OFFSET -1.1221 -3.69964 12.103
          }
        }
      }
    }
  }
  JOINT lButtock
  {
    OFFSET 8.77824 4.35084 1.2192
    CHANNELS 3 Zrotation Xrotation Yrotation
    JOINT lThigh
    {
      OFFSET 0.0 -1.70687 -2.19456
      CHANNELS 3 Zrotation Xrotation Yrotation
      JOINT lShin
      {
        OFFSET 0.0 -36.8199 0.73152
        CHANNELS 3 Zrotation Xrotation Yrotation
        JOINT lFoot
        {
          OFFSET -0.73152 -45.1104 -5.12064
          CHANNELS 3 Zrotation Xrotation Yrotation
          End Site
          {
            OFFSET 1.1221 -3.69964 12.103
          }
        }
      }
    }
  }
}
MOTION
Frames: 9
Frame Time: 0.00833333
-132.107 73.1054 -30.9518 -40.7096 88.8332 -24.4723 -3.02589 43.1323 -0.377043 -3.68606 -7.50476 0.124384 3.7436 16.2424 -0.802579 2.88604 -61.2936 1.41127 -0.0 0.0 0.0 -0.0 0.0 0.0 9.68739e-14 -3.2951e-13 1.51387e-14 77.5114 33.5086 6.13836 -18.722 -11.4846 35.6604 -0.011912 -3.1159 -0.438347 -8.17179e-10 -1.25092e-09 -1.16873e-10 -1.42045e-09 -2.16327e-09 -2.04703e-10 -8.17177e-10 -1.25093e-09 -1.16872e-10 7.73091 5.47488 0.417314 -8.17175e-10 -1.25093e-09 -1.16873e-10 2.90554 0.965183 0.102902 -8.17168e-10 -1.25093e-09 -1.16872e-10 10.2786 0.731801 0.0259123 -8.17182e-10 -1.25093e-09 -1.16866e-10 2.22167 -0.733487 -0.20892 9.68481e-14 -3.2951e-13 1.4825e-14 -72.9919 24.2921 -4.01256 16.9242 -9.575 -31.649 0.790948 -24.4058 3.6562 8.96619e-10 -1.12796e-09 7.57056e-10 1.54909e-09 -1.94175e-09 1.32217e-09 8.96612e-10 -1.12796e-09 7.57064e-10 -7.73091 5.47488 -0.417314 8.96618e-10 -1.12796e-09 7.57064e-10 -2.90554 0.965183 -0.102902 8.96608e-10 -1.12796e-09 7.57059e-10 -10.2786 0.731801 -0.0259123 8.96623e-10 -1.12796e-09 7.57052e-10 -2.22167 -0.733487 0.20892 -2.03217e-16 0.0 -3.88251e-19 -11.1693 -56.5934 -7.52091 -110.773 88.8068 110.831 0.843178 31.2591 -2.30628 2.03217e-16 0.0 3.88251e-19 17.457 -69.0642 30.8552 3.09532 74.3571 -3.00506 0.394616 12.1159 0.282452
-131.467 73.0952 -31.0006 -36.6629 88.838 -20.4874 -3.10741 43.2155 -0.434739 -3.68679 -7.50134 0.10989 3.75288 16.2583 -0.7878 2.87404 -61.2718 1.43345 -0.0 0.0 0.0 -0.0 0.0 0.0 3.51245e-14 -2.43051e-13 8.13619e-15 77.5139 33.5843 6.22139 -18.7737 -11.5433 35.7796 -0.0124774 -3.18864 -0.448601 -1.06296e-09 -1.56211e-09 -1.52409e-10 -1.84765e-09 -2.70079e-09 -2.67006e-10 -1.06296e-09 -1.56211e-09 -1.5241e-10 7.73091 5.47488 0.417314 -1.06296e-09 -1.56211e-09 -1.52407e-10 2.90554 0.965183 0.102902 -1.06295e-09 -1.56211e-09 -1.52405e-10 10.2786 0.731801 0.0259123 -1.06296e-09 -1.56211e-09 -1.524e-10 2.22167 -0.733487 -0.20892 3.50364e-14 -2.43051e-13 7.8252e-15 -72.8823 24.2858 -4.048 16.9083 -9.55924 -31.6145 0.790735 -24.4028 3.65568 1.17898e-09 -1.40894e-09 9.75188e-10 2.03638e-09 -2.42411e-09 1.70316e-09 1.17897e-09 -1.40894e-09 9.75194e-10 -7.73091 5.47488 -0.417314 1.17897e-09 -1.40894e-09 9.75193e-10 -2.90554 0.965183 -0.102902 1.17897e-09 -1.40894e-09 9.75186e-10 -10.2786 0.731801 -0.0259123 1.17898e-09 -1.40894e-09 9.75176e-10 -2.22167 -0.733487 0.20892 -2.03217e-16 0.0 -3.88251e-19 -12.0852 -57.9139 -8.64443 -146.17 87.9641 146.285 0.0541264 29.1887 -0.542247 2.03217e-16 0.0 3.88251e-19 17.1815 -68.6729 30.7896 3.17004 74.674 -3.10207 0.37726 11.8327 0.580538
-130.824 73.0853 -31.052 -31.8548 88.8297 -15.7505 -3.19165 43.3024 -0.491067 -3.6841 -7.49834 0.0963986 3.75762 16.2724 -0.773383 2.85225 -61.251 1.44898 -0.0 0.0 0.0 -0.0 0.0 0.0 8.58688e-16 -3.43973e-13 -1.63997e-15 77.5197 33.6506 6.2868 -18.8251 -11.6021 35.8984 -0.0129405 -3.24606 -0.456698 -1.16355e-09 -1.60916e-09 -2.01889e-10 -2.02206e-09 -2.78156e-09 -3.53052e-10 -1.16355e-09 -1.60916e-09 -2.01892e-10 7.73091 5.47488 0.417314 -1.16355e-09 -1.60916e-09 -2.01886e-10 2.90554 0.965183 0.102902 -1.16354e-09 -1.60916e-09 -2.01884e-10 10.2786 0.731801 0.0259123 -1.16356e-09 -1.60916e-09 -2.01879e-10 2.22167 -0.733487 -0.20892 7.31639e-16 -3.43972e-13 -1.93815e-15 -72.7884 24.2723 -4.08365 16.8899 -9.54104 -31.5747 0.790443 -24.3986 3.65498 1.24961e-09 -1.4827e-09 1.04225e-09 2.15816e-09 -2.55044e-09 1.81993e-09 1.24961e-09 -1.4827e-09 1.04225e-09 -7.73091 5.47488 -0.417314 1.24961e-09 -1.4827e-09 1.04225e-09 -2.90554 0.965183 -0.102902 1.2496e-09 -1.4827e-09 1.04224e-09 -10.2786 0.731801 -0.0259123 1.24962e-09 -1.4827e-09 1.04223e-09 -2.22167 -0.733487 0.20892 -2.03217e-16 0.0 -3.88251e-19 -13.047 -59.2635 -9.80445 -158.022 86.9219 158.181 -0.460491 27.0799 0.792372 2.03217e-16 0.0 3.88251e-19 16.9111 -68.2593 30.7501 3.24289 74.9782 -3.20023 0.360526 11.5616 0.898571
-130.178 73.0761 -31.1048 -26.488 88.8111 -10.4619 -3.28498 43.3937 -0.541432 -3.67837 -7.49393 0.0846855 3.75723 16.2812 -0.758978 2.81545 -61.2258 1.45495 -0.0 0.0 0.0 -0.0 0.0 0.0 1.12902e-14 -7.90907e-13 -1.65911e-14 77.5302 33.7047 6.33146 -18.8781 -11.663 36.021 -0.0132252 -3.28054 -0.46156 -1.08595e-09 -1.27441e-09 -2.90678e-10 -1.88578e-09 -2.20193e-09 -5.06728e-10 -1.08595e-09 -1.2744e-09 -2.90684e-10 7.73091 5.47488 0.417314 -1.08594e-09 -1.2744e-09 -2.90676e-10 2.90554 0.965183 0.102902 -1.08594e-09 -1.2744e-09 -2.90675e-10 10.2786 0.731801 0.0259123 -1.08595e-09 -1.2744e-09 -2.90671e-10 2.22167 -0.733487 -0.20892 1.11607e-14 -7.90906e-13 -1.68567e-14 -72.7114 24.2474 -4.12122 16.8664 -9.51784 -31.5238 0.790061 -24.3932 3.65405 1.01091e-09 -1.25574e-09 9.2038e-10 1.74553e-09 -2.15986e-09 1.60568e-09 1.01091e-09 -1.25573e-09 9.20389e-10 -7.73091 5.47488 -0.417314 1.01091e-09 -1.25574e-09 9.20382e-10 -2.90554 0.965183 -0.102902 1.01091e-09 -1.25574e-09 9.20374e-10 -10.2786 0.731801 -0.0259123 1.01092e-09 -1.25573e-09 9.20365e-10 -2.22167 -0.733487 0.20892 -2.03217e-16 0.0 -3.88251e-19 -14.077 -60.6672 -11.0241 -163.469 85.8859 163.657 -0.73431 24.9148 1.68255 2.03217e-16 0.0 3.88251e-19 16.639 -67.8206 30.7405 3.31402 75.2703 -3.2996 0.342955 11.3057 1.252
-129.528 73.0683 -31.1557 -20.8837 88.7803 -4.9447 -3.38728 43.4886 -0.586933 -3.67184 -7.48748 0.0743558 3.75353 16.2863 -0.744736 2.76742 -61.194 1.45296 -0.0 0.0 0.0 -0.0 0.0 0.0 4.5231e-14 -1.4518e-12 -3.53868e-14 77.5483 33.7473 6.35695 -18.9339 -11.7273 36.1501 -0.013374 -3.29885 -0.464142 -8.85631e-10 -6.888e-10 -4.08924e-10 -1.53565e-09 -1.18834e-09 -7.1115e-10 -8.85632e-10 -6.88795e-10 -4.08933e-10 7.73091 5.47488 0.417314 -8.8563e-10 -6.88795e-10 -4.08925e-10 2.90554 0.965183 0.102902 -8.85622e-10 -6.88795e-10 -4.08923e-10 10.2786 0.731801 0.0259123 -8.85634e-10 -6.88794e-10 -4.0892e-10 2.22167 -0.733487 -0.20892 4.51196e-14 -1.4518e-12 -3.56042e-14 -72.645 24.215 -4.16268 16.838 -9.4898 -31.4623 0.789667 -24.3876 3.6531 5.79249e-10 -8.29687e-10 6.81821e-10 9.99403e-10 -1.42687e-09 1.18698e-09 5.79242e-10 -8.29685e-10 6.81835e-10 -7.73091 5.47488 -0.417314 5.79248e-10 -8.29688e-10 6.81824e-10 -2.90554 0.965183 -0.102902 5.79242e-10 -8.29687e-10 6.81818e-10 -10.2786 0.731801 -0.0259123 5.79251e-10 -8.29686e-10 6.8181e-10 -2.22167 -0.733487 0.20892 -2.03217e-16 0.0 -3.88251e-19 -15.2198 -62.1275 -12.3552 -166.585 84.8779 166.79 -0.858711 22.6558 2.29656 2.03217e-16 0.0 3.88251e-19 16.3609 -67.358 30.7562 3.38343 75.5501 -3.39976 0.325433 11.0598 1.63912
-128.874 73.0626 -31.2039 -15.3633 88.7406 0.4843 -3.48429 43.586 -0.637101 -3.66198 -7.48362 0.0639594 3.74646 16.2941 -0.731337 2.71714 -61.1688 1.44837 -0.0 0.0 0.0 -0.0 0.0 0.0 7.98414e-14 -2.06878e-12 -5.36218e-14 77.569 33.7843 6.36889 -18.9875 -11.7893 36.2748 -0.0134857 -3.31309 -0.46615 -5.95268e-10 -1.88636e-11 -5.06944e-10 -1.02931e-09 -2.91688e-11 -8.80234e-10 -5.9527e-10 -1.88558e-11 -5.06956e-10 7.73091 5.47488 0.417314 -5.95268e-10 -1.88563e-11 -5.06946e-10 2.90554 0.965183 0.102902 -5.9526e-10 -1.88555e-11 -5.06945e-10 10.2786 0.731801 0.0259123 -5.95269e-10 -1.88553e-11 -5.06943e-10 2.22167 -0.733487 -0.20892 7.97507e-14 -2.06878e-12 -5.37942e-14 -72.5915 24.1816 -4.20266 16.8104 -9.46256 -31.4027 0.789228 -24.3813 3.65203 8.69665e-11 -3.38733e-10 3.57556e-10 1.49074e-10 -5.82576e-10 6.19227e-10 8.69593e-11 -3.3873e-10 3.57574e-10 -7.73091 5.47488 -0.417314 8.69662e-11 -3.38735e-10 3.57559e-10 -2.90554 0.965183 -0.102902 8.69614e-11 -3.38734e-10 3.57556e-10 -10.2786 0.731801 -0.0259123 8.69674e-11 -3.38733e-10 3.5755e-10 -2.22167 -0.733487 0.20892 -2.03217e-16 0.0 -3.88251e-19 -16.4427 -63.5844 -13.7617 -168.434 83.9958 168.65 -0.869977 20.4114 2.64161 2.03217e-16 0.0 3.88251e-19 16.09 -66.8768 30.7882 3.45001 75.8163 -3.50011 0.31092 10.8202 2.02647
-128.215 73.0593 -31.2474 -10.0847 88.6936 5.6684 -3.56166 43.6848 -0.701523 -3.64625 -7.487 0.0520456 3.73597 16.3111 -0.719459 2.67355 -61.1638 1.44656 -0.0 0.0 0.0 -0.0 0.0 0.0 9.22819e-14 -2.38395e-12 -6.6891e-14 77.5872 33.8218 6.37291 -19.0342 -11.8434 36.3838 -0.0136635 -3.33538 -0.469293 -2.47516e-10 5.68877e-10 -5.35055e-10 -4.24425e-10 9.87216e-10 -9.27897e-10 -2.47518e-10 5.68886e-10 -5.35068e-10 7.73091 5.47488 0.417314 -2.47517e-10 5.68886e-10 -5.35058e-10 2.90554 0.965183 0.102902 -2.47508e-10 5.68887e-10 -5.35057e-10 10.2786 0.731801 0.0259123 -2.47516e-10 5.68887e-10 -5.35055e-10 2.22167 -0.733487 -0.20892 9.21963e-14 -2.38395e-12 -6.70401e-14 -72.5527 24.1539 -4.23582 16.7893 -9.44178 -31.3573 0.788712 -24.3739 3.65078 -3.33577e-10 8.29481e-11 -2.14274e-11 -5.76152e-10 1.41885e-10 -4.21781e-11 -3.33584e-10 8.29517e-11 -2.14083e-11 -7.73091 5.47488 -0.417314 -3.33577e-10 8.29472e-11 -2.14242e-11 -2.90554 0.965183 -0.102902 -3.33581e-10 8.29477e-11 -2.14258e-11 -10.2786 0.731801 -0.0259123 -3.33577e-10 8.29477e-11 -2.14306e-11 -2.22167 -0.733487 0.20892 -2.03217e-16 0.0 -3.88251e-19 -17.6913 -64.9804 -15.1868 -169.494 83.3314 169.719 -0.806914 18.2881 2.72286 2.03217e-16 0.0 3.88251e-19 15.8403 -66.3826 30.8281 3.51255 76.0675 -3.59998 0.301888 10.5839 2.38065
-127.55 73.0592 -31.2837 -5.2269 88.6418 10.4298 -3.62768 43.7862 -0.778137 -3.61951 -7.4991 0.0386752 3.72091 16.3427 -0.709688 2.63673 -61.1866 1.44698 -0.0 0.0 0.0 -0.0 0.0 0.0 6.9566e-14 -2.30341e-12 -7.65989e-14 77.599 33.8643 6.37015 -19.0741 -11.8899 36.477 -0.0139243 -3.36702 -0.473754 2.52575e-10 1.15224e-09 -4.60143e-10 4.43483e-10 1.99493e-09 -7.9631e-10 2.52572e-10 1.15225e-09 -4.60154e-10 7.73091 5.47488 0.417314 2.52574e-10 1.15225e-09 -4.60144e-10 2.90554 0.965183 0.102902 2.52582e-10 1.15225e-09 -4.60143e-10 10.2786 0.731801 0.0259123 2.52574e-10 1.15225e-09 -4.60141e-10 2.22167 -0.733487 -0.20892 6.94512e-14 -2.30341e-12 -7.67577e-14 -72.5333 24.1319 -4.25794 16.7774 -9.42997 -31.3315 0.788291 -24.3679 3.64976 -7.3379e-10 4.72061e-10 -5.87385e-10 -1.26375e-09 8.08765e-10 -1.0268e-09 -7.33797e-10 4.72064e-10 -5.8737e-10 -7.73091 5.47488 -0.417314 -7.3379e-10 4.72061e-10 -5.87382e-10 -2.90554 0.965183 -0.102902 -7.33795e-10 4.72061e-10 -5.87383e-10 -10.2786 0.731801 -0.0259123 -7.33791e-10 4.72061e-10 -5.87387e-10 -2.22167 -0.733487 0.20892 -2.03217e-16 0.0 -3.88251e-19 -18.9537 -66.3298 -16.6234 -170.09 82.8845 170.32 -0.690241 16.2667 2.49186 2.03217e-16 0.0 3.88251e-19 15.6231 -65.875 30.8917 3.57186 76.3084 -3.70066 0.299159 10.3516 2.6915
-126.88 73.0626 -31.3158 -0.8597 88.5904 14.7035 -3.68581 43.8904 -0.863469 -3.58461 -7.51738 0.0244716 3.70169 16.3842 -0.701527 2.60269 -61.2287 1.44744 -0.0 0.0 0.0 -0.0 0.0 0.0 2.61734e-14 -1.97308e-12 -8.4235e-14 77.6081 33.9076 6.35771 -19.1094 -11.9312 36.5594 -0.0142192 -3.40217 -0.478713 8.87869e-10 1.77929e-09 -3.15326e-10 1.54521e-09 3.07744e-09 -5.4301e-10 8.87868e-10 1.7793e-09 -3.15334e-10 7.73091 5.47488 0.417314 8.87868e-10 1.7793e-09 -3.15324e-10 2.90554 0.965183 0.102902 8.87876e-10 1.7793e-09 -3.15324e-10 10.2786 0.731801 0.0259123 8.87868e-10 1.7793e-09 -3.15322e-10 2.22167 -0.733487 -0.20892 2.60093e-14 -1.97308e-12 -8.44245e-14 -72.5308 24.1128 -4.27282 16.7711 -9.42382 -31.318 0.787922 -24.3626 3.64886 -1.15536e-09 8.76005e-10 -1.31e-09 -1.98648e-09 1.50004e-09 -2.28273e-09 -1.15537e-09 8.76007e-10 -1.31e-09 -7.73091 5.47488 -0.417314 -1.15536e-09 8.76005e-10 -1.31e-09 -2.90554 0.965183 -0.102902 -1.15537e-09 8.76006e-10 -1.31e-09 -10.2786 0.731801 -0.0259123 -1.15536e-09 8.76006e-10 -1.31001e-09 -2.22167 -0.733487 0.20892 -2.03217e-16 0.0 -3.88251e-19 -20.2623 -67.6552 -18.1068 -170.408 82.6194 170.636 -0.553706 14.3042 1.98054 2.03217e-16 0.0 3.88251e-19 15.4263 -65.3518 30.976 3.62776 76.538 -3.80156 0.300661 10.1247 2.97739
